HIERARCHY
ROOT Root
{
	OFFSET 0.00000 0.00000 0.00000
	CHANNELS 6 Xposition Yposition Zposition Zrotation Xrotation Yrotation
	JOINT Hip
	{
		OFFSET 0 0 0	
		CHANNELS 3 Zrotation Xrotation Yrotation
		JOINT Tummy
		{
			OFFSET 0 0.04 0	
			CHANNELS 3 Zrotation Xrotation Yrotation
			JOINT ChestBottom
			{
				OFFSET 0 0.194 0	
				CHANNELS 3 Zrotation Xrotation Yrotation
				JOINT ChestTop
				{
					OFFSET 0 0.166 0	
					CHANNELS 3 Zrotation Xrotation Yrotation
					JOINT LeftCollar
					{
						OFFSET 0 0.1 0	
						CHANNELS 3 Zrotation Xrotation Yrotation
						JOINT LeftUpperArm
						{
							OFFSET 0.156 -0.02 0.03	
							CHANNELS 3 Zrotation Xrotation Yrotation
							JOINT LeftForeArm
							{
								OFFSET 0.035 -0.27 -0.01	
								CHANNELS 3 Zrotation Xrotation Yrotation
								JOINT LeftHand
								{
									OFFSET 0.01 -0.27 0.01	
									CHANNELS 3 Zrotation Xrotation Yrotation
									End Site
									{
										OFFSET 0 -0.15 0
									}
								}
							}
						}
					}
					JOINT RightCollar
					{
						OFFSET 0 0.1 0	
						CHANNELS 3 Zrotation Xrotation Yrotation
						JOINT RightUpperArm
						{
							OFFSET -0.156 -0.02 0.03	
							CHANNELS 3 Zrotation Xrotation Yrotation
							JOINT RightForeArm
							{
								OFFSET -0.035 -0.27 -0.01	
								CHANNELS 3 Zrotation Xrotation Yrotation
								JOINT RightHand
								{
									OFFSET -0.01 -0.27 0.01	
									CHANNELS 3 Zrotation Xrotation Yrotation
									End Site
									{
										OFFSET 0 -0.15 0
									}
								}
							}
						}
					}
					JOINT Neck
					{
						OFFSET 0 0.1 0	
						CHANNELS 3 Zrotation Xrotation Yrotation
						JOINT Head
						{
							OFFSET 0 0.127 0.03	
							CHANNELS 3 Zrotation Xrotation Yrotation
							End Site
							{
								OFFSET 0 0.127 0.03
							}
						}
					}
				}
			}
		}
	}
	JOINT LeftHip
	{
		OFFSET 0 0 0	
		CHANNELS 3 Zrotation Xrotation Yrotation
		JOINT LeftThigh
		{
			OFFSET 0.088 -0.06 0	
			CHANNELS 3 Zrotation Xrotation Yrotation
			JOINT LeftLowerLeg
			{
				OFFSET 0 -0.39 0.02	
				CHANNELS 3 Zrotation Xrotation Yrotation
				JOINT LeftFootTop
				{
					OFFSET 0 -0.43 -0.02	
					CHANNELS 3 Zrotation Xrotation Yrotation
					JOINT LeftFootFront
					{
						OFFSET 0 -0.07 0.085	
						CHANNELS 3 Zrotation Xrotation Yrotation
						End Site
						{
							OFFSET 0 -0.005 0.09
						}
					}
				}
				JOINT LeftHeel
				{
					OFFSET 0 -0.43 -0.02	
					CHANNELS 3 Zrotation Xrotation Yrotation
					End Site
					{
						OFFSET 0 -0.075 -0.05
					}
				}
			}
		}
	}
	JOINT RightHip
	{
		OFFSET 0 0 0	
		CHANNELS 3 Zrotation Xrotation Yrotation
		JOINT RightThigh
		{
			OFFSET -0.088 -0.06 0	
			CHANNELS 3 Zrotation Xrotation Yrotation
			JOINT RightLowerLeg
			{
				OFFSET 0 -0.39 0.02	
				CHANNELS 3 Zrotation Xrotation Yrotation
				JOINT RightFootTop
				{
					OFFSET 0 -0.43 -0.02	
					CHANNELS 3 Zrotation Xrotation Yrotation
					JOINT RightFootFront
					{
						OFFSET 0 -0.07 0.085	
						CHANNELS 3 Zrotation Xrotation Yrotation
						End Site
						{
							OFFSET 0 -0.005 0.09
						}
					}
				}
				JOINT RightHeel
				{
					OFFSET 0 -0.43 -0.02	
					CHANNELS 3 Zrotation Xrotation Yrotation
					End Site
					{
						OFFSET 0 -0.075 -0.05
					}
				}
			}
		}
	}
}
MOTION
Frames: 10
Frame Time: 0.025
-0.079092 0.95937 -0.42347 -0 0 -0 2.7569 -1.7665 -80.218 0.24825 1.5221 -4.9172 0.24825 1.5221 -4.9171 0.19976 1.2801 -4.1298 -0 0 -0 35.007 -39.043 17.353 -62.783 -41.594 -42.695 -51.159 -12.396 61.028 -0 0 -0 -25.539 -55.048 10.523 41.349 -34.758 31.526 46.544 -28.608 -66.576 -1.914 -4.3975 5.1293 -1.914 -4.3975 5.1293 2.7569 -1.7665 -80.218 -1.9291 -5.1429 -11.307 -1.9607 22.971 13.798 -5.7484 8.3779 15.993 0.34987 -17.802 1.3763 -0 0 -0 2.7569 -1.7665 -80.218 0.82409 -5.9726 2.0761 -5.1997 17.504 -1.9721 20.41 11.974 3.0854 -0.0085955 -25.2 -0.3428 -0 0 -0 
-0.082393 0.95864 -0.43121 -0 0 -0 2.4788 -1.3578 -74.299 0.59459 1.7839 -5.4572 0.59459 1.7839 -5.4572 0.48805 1.5024 -4.5825 -0 0 -0 34.294 -39.199 16.989 -62.581 -41.912 -42.609 -51.04 -12.39 60.984 -0 0 -0 -27.095 -54.924 10.06 41.905 -35.297 31.542 46.077 -28.654 -66.407 -1.9673 -4.381 5.2596 -1.9673 -4.381 5.2596 2.4788 -1.3578 -74.299 -1.9094 -5.99 -9.0011 -3.2457 26.973 17.171 -6.8296 6.3138 12.526 -0.57714 -14.443 0.068714 -0 0 -0 2.4788 -1.3578 -74.299 1.0131 -5.0152 1.3169 -4.9029 17.355 -1.5108 19.713 11.091 2.8951 0.028577 -24.93 -0.51832 -0 0 -0 
-0.086219 0.95776 -0.43805 -0 0 -0 2.0551 -0.6945 -68.654 1.1295 1.9395 -5.8759 1.1295 1.9395 -5.8759 0.93546 1.6371 -4.9328 -0 0 -0 33.084 -39.301 16.391 -62.34 -42.135 -42.504 -50.915 -12.262 60.921 -0 0 -0 -29.127 -54.436 9.6734 42.293 -36.184 31.535 45.525 -28.859 -66.474 -2.1289 -4.1782 5.3064 -2.1289 -4.1783 5.3064 2.0551 -0.6945 -68.654 -1.9752 -7.2185 -7.6038 -4.2268 30.94 17.898 -7.3338 3.2868 11.639 -1.0006 -9.5884 -0.16624 -0 0 -0 2.0551 -0.6945 -68.654 1.6023 -4.1362 0.64472 -4.7449 17.444 -0.51331 18.66 10.169 3.3679 0.023709 -24.591 -0.59521 -0 0 -0 
-0.090367 0.95676 -0.44404 -0 0 -0 1.7946 0.071762 -63.414 1.6433 1.7956 -6.0488 1.6433 1.7956 -6.0487 1.3677 1.5201 -5.0772 -0 0 -0 31.53 -39.113 15.362 -62.361 -42.162 -42.555 -50.825 -12.048 60.914 -0 0 -0 -31.105 -53.34 9.1015 42.561 -36.961 31.729 44.943 -29.276 -66.759 -2.2815 -3.7882 5.1393 -2.2815 -3.7882 5.1393 1.7946 0.071762 -63.414 -2.0698 -8.7889 -6.5775 -4.5121 33.477 16.614 -6.6728 0.36663 12.309 -0.81972 -5.5135 0.84894 -0 0 -0 1.7946 0.071762 -63.414 2.5052 -3.5543 0.23822 -4.9634 17.62 2.0405 17.449 8.9089 3.4129 0.0042379 -24.09 -0.38427 -0 0 -0 
-0.094602 0.95571 -0.44926 -0 0 -0 1.8575 0.78722 -58.752 1.9579 1.3739 -5.9063 1.9579 1.3739 -5.9063 1.6352 1.1677 -4.9581 -0 0 -0 30.029 -38.6 13.968 -62.741 -41.997 -42.74 -50.792 -11.793 60.969 -0 0 -0 -32.539 -51.763 8.1197 42.828 -37.262 32.2 44.424 -29.792 -67.14 -2.3476 -3.3842 4.7119 -2.3476 -3.3842 4.7119 1.8575 0.78722 -58.752 -2.157 -10.007 -5.7225 -3.8332 33.853 15.846 -5.5794 -1.6502 11.249 -0.11577 -3.7939 1.4999 -0 0 -0 1.8575 0.78722 -58.752 3.3137 -3.3947 0.48125 -5.3681 17.811 5.9698 16.038 7.4195 2.6442 0.0958 -23.473 -0.038079 -0 0 -0 
-0.098692 0.95469 -0.45379 -0 0 -0 2.1721 1.5088 -54.502 2.1167 0.84339 -5.6325 2.1167 0.84339 -5.6325 1.7726 0.7225 -4.7292 -0 0 -0 28.877 -37.92 12.783 -63.176 -41.659 -42.917 -50.855 -11.556 61.029 -0 0 -0 -33.217 -50.143 6.8487 43.218 -37.138 32.985 44.014 -30.223 -67.552 -2.3554 -3.1917 4.1887 -2.3554 -3.1917 4.1887 2.1721 1.5088 -54.502 -2.1189 -10.154 -5.4039 -2.3103 32.289 15.919 -5.2034 -2.7985 7.8853 0.23916 -4.5629 0.8183 -0 0 -0 2.1721 1.5088 -54.502 3.965 -3.5852 1.8125 -5.7346 18.037 9.8819 14.366 5.8888 1.3358 0.23955 -22.776 0.1942 -0 0 -0 
-0.1024 0.95374 -0.45778 -0 0 -0 2.5288 2.3041 -50.086 2.1892 0.34349 -5.614 2.1892 0.34349 -5.614 1.8368 0.30298 -4.715 -0 0 -0 28.265 -37.085 12.578 -63.473 -41.059 -43.148 -50.972 -11.283 61.049 -0 0 -0 -32.936 -48.863 5.8508 43.759 -36.868 33.978 43.752 -30.439 -67.921 -2.2857 -3.2502 3.8505 -2.2857 -3.2502 3.8505 2.5288 2.3041 -50.086 -1.9411 -9.4729 -5.5158 -0.29343 29.815 13.485 -5.6776 -3.4927 5.4667 0.030984 -6.6661 -0.053254 -0 0 -0 2.5288 2.3041 -50.086 4.671 -4.1101 3.7567 -6.1555 18.493 13.135 12.537 4.3136 -0.41945 0.1605 -21.969 0.30671 -0 0 -0 
-0.10558 0.95292 -0.46136 -0 0 -0 2.8105 2.9257 -45.205 2.0971 0.082736 -6.0226 2.0971 0.082736 -6.0226 1.7611 0.084322 -5.0589 -0 0 -0 28.496 -36.272 13.743 -63.772 -40.254 -43.429 -51.036 -10.726 60.944 -0 0 -0 -31.905 -48.194 5.3982 44.417 -36.792 34.816 43.675 -30.375 -68.051 -2.0599 -3.6097 3.8098 -2.0599 -3.6097 3.8098 2.8105 2.9257 -45.205 -1.9559 -9.0269 -6.1883 1.5361 27.679 7.9695 -6.373 -4.096 5.8601 -0.12627 -8.2619 -0.36848 -0 0 -0 2.8105 2.9257 -45.205 5.3671 -4.652 5.1957 -6.8585 18.988 15.758 10.679 2.8148 -2.2173 -0.13476 -21.014 0.42225 -0 0 -0 
-0.10814 0.95228 -0.46468 -0 0 -0 3.1753 3.1091 -40.162 1.7548 0.15229 -6.6014 1.7548 0.15229 -6.6014 1.4731 0.14153 -5.5449 -0 0 -0 29.45 -35.833 15.475 -63.936 -39.669 -43.5 -51.037 -9.9024 60.708 -0 0 -0 -30.714 -47.952 5.3128 45.101 -37.203 35.155 43.759 -29.976 -67.816 -1.7222 -4.2645 3.8693 -1.7222 -4.2645 3.8693 3.1753 3.1091 -40.162 -2.5252 -9.4065 -7.9017 2.5014 26.645 3.2383 -6.846 -4.7091 7.0231 -0.12786 -7.9764 -0.35963 -0 0 -0 3.1753 3.1091 -40.162 5.651 -4.7768 5.7088 -7.7371 19.03 17.385 8.9772 1.5795 -3.3723 -0.3176 -19.918 0.59367 -0 0 -0 
-0.11009 0.95184 -0.46787 -0 0 -0 3.7555 3.0511 -35.412 1.2639 0.37442 -6.9599 1.2639 0.37442 -6.9599 1.0588 0.32488 -5.8458 -0 0 -0 30.397 -35.898 16.381 -63.619 -39.71 -43.175 -51.012 -9.1288 60.49 -0 0 -0 -29.955 -47.589 5.2111 45.658 -38.133 35.04 43.926 -29.358 -67.46 -1.4668 -5.0281 3.7471 -1.4668 -5.0281 3.7471 3.7555 3.0511 -35.412 -3.3468 -10.236 -10.511 2.259 26.368 1.9777 -6.9913 -5.3185 6.7674 -0.13896 -5.7031 -0.19273 -0 0 -0 3.7555 3.0511 -35.412 5.2823 -4.5793 5.579 -8.2078 18.492 17.647 7.536 0.68191 -3.6208 -0.25835 -18.747 0.65952 -0 0 -0 
